<?xml version="1.0" encoding="utf-8"?><svg viewBox="0 0 502.66 502.66" xmlns="http://www.w3.org/2000/svg" xmlns:xlink="http://www.w3.org/1999/xlink"><style>:root>svg{display:none}:root>svg:target{display:block}</style><svg viewBox="0 0 502.664 502.664" id="icon" xmlns="http://www.w3.org/2000/svg"><path d="M153.821 358.226L0 274.337v-46.463l153.821-83.414v54.574L46.636 250.523l107.185 53.431v54.272zm26.273 29.358L282.103 115.08h32.227L212.084 387.584h-31.99zm168.749-29.358v-54.272l107.164-52.999-107.164-52.59v-53.927l153.821 83.522v46.183l-153.821 84.083z"/></svg><svg viewBox="0 0 20 20" id="user" xmlns="http://www.w3.org/2000/svg"><g clip-path="url(#ba)"><path d="M17.071 2.929A9.935 9.935 0 0010 0a9.934 9.934 0 00-7.071 2.929A9.934 9.934 0 000 10a9.935 9.935 0 002.929 7.071A9.935 9.935 0 0010 20a9.935 9.935 0 007.071-2.929A9.935 9.935 0 0020 10a9.935 9.935 0 00-2.929-7.071zM5.013 17.28A5.049 5.049 0 0110 13.096a5.049 5.049 0 014.987 4.185A8.778 8.778 0 0110 18.828a8.778 8.778 0 01-4.987-1.547zM6.82 8.745A3.183 3.183 0 0110 5.565a3.183 3.183 0 013.18 3.18 3.183 3.183 0 01-3.18 3.18 3.183 3.183 0 01-3.18-3.18zm9.182 7.723a6.228 6.228 0 00-1.82-2.933 6.23 6.23 0 00-1.81-1.143 4.351 4.351 0 001.98-3.647c0-2.4-1.953-4.352-4.352-4.352a4.356 4.356 0 00-4.351 4.352c0 1.525.789 2.87 1.98 3.647a6.23 6.23 0 00-3.63 4.076A8.806 8.806 0 011.171 10c0-4.868 3.96-8.828 8.828-8.828 4.868 0 8.828 3.96 8.828 8.828a8.806 8.806 0 01-2.826 6.468z"/></g><defs><clipPath id="ba"><path d="M0 0h20v20H0z"/></clipPath></defs></svg></svg>